<?xml version="1.0" encoding="UTF-8" standalone="no"?>
<!DOCTYPE svg PUBLIC "-//W3C//DTD SVG 1.1//EN"
 "http://www.w3.org/Graphics/SVG/1.1/DTD/svg11.dtd">
<!-- Generated by graphviz version 2.43.0 (0)
 -->
<!-- Title: snakemake_dag Pages: 1 -->
<svg width="336pt" height="404pt"
 viewBox="0.00 0.00 336.00 404.00" xmlns="http://www.w3.org/2000/svg" xmlns:xlink="http://www.w3.org/1999/xlink">
<g id="graph0" class="graph" transform="scale(1 1) rotate(0) translate(4 400)">
<title>snakemake_dag</title>
<polygon fill="white" stroke="transparent" points="-4,4 -4,-400 332,-400 332,4 -4,4"/>
<!-- 0 -->
<g id="node1" class="node">
<title>0</title>
<path fill="none" stroke="#d6d856" stroke-width="2" stroke-dasharray="5,2" d="M115,-36C115,-36 85,-36 85,-36 79,-36 73,-30 73,-24 73,-24 73,-12 73,-12 73,-6 79,0 85,0 85,0 115,0 115,0 121,0 127,-6 127,-12 127,-12 127,-24 127,-24 127,-30 121,-36 115,-36"/>
<text text-anchor="middle" x="100" y="-15.5" font-family="sans" font-size="10.00">all</text>
</g>
<!-- 1 -->
<g id="node2" class="node">
<title>1</title>
<path fill="none" stroke="#56d8d8" stroke-width="2" stroke-dasharray="5,2" d="M146,-180C146,-180 54,-180 54,-180 48,-180 42,-174 42,-168 42,-168 42,-156 42,-156 42,-150 48,-144 54,-144 54,-144 146,-144 146,-144 152,-144 158,-150 158,-156 158,-156 158,-168 158,-168 158,-174 152,-180 146,-180"/>
<text text-anchor="middle" x="100" y="-159.5" font-family="sans" font-size="10.00">results_dissimilarity</text>
</g>
<!-- 1&#45;&gt;0 -->
<g id="edge1" class="edge">
<title>1&#45;&gt;0</title>
<path fill="none" stroke="grey" stroke-width="2" d="M67.95,-143.88C54.88,-135.05 41.18,-122.97 34,-108 27.08,-93.57 27.08,-86.43 34,-72 40.49,-58.46 52.32,-47.28 64.19,-38.74"/>
<polygon fill="grey" stroke="grey" stroke-width="2" points="66.4,-41.47 72.76,-32.99 62.51,-35.65 66.4,-41.47"/>
</g>
<!-- 6 -->
<g id="node7" class="node">
<title>6</title>
<path fill="none" stroke="#59d856" stroke-width="2" stroke-dasharray="5,2" d="M144.5,-108C144.5,-108 55.5,-108 55.5,-108 49.5,-108 43.5,-102 43.5,-96 43.5,-96 43.5,-84 43.5,-84 43.5,-78 49.5,-72 55.5,-72 55.5,-72 144.5,-72 144.5,-72 150.5,-72 156.5,-78 156.5,-84 156.5,-84 156.5,-96 156.5,-96 156.5,-102 150.5,-108 144.5,-108"/>
<text text-anchor="middle" x="100" y="-87.5" font-family="sans" font-size="10.00">generate_seq_yaml</text>
</g>
<!-- 1&#45;&gt;6 -->
<g id="edge10" class="edge">
<title>1&#45;&gt;6</title>
<path fill="none" stroke="grey" stroke-width="2" d="M100,-143.7C100,-135.98 100,-126.71 100,-118.11"/>
<polygon fill="grey" stroke="grey" stroke-width="2" points="103.5,-118.1 100,-108.1 96.5,-118.1 103.5,-118.1"/>
</g>
<!-- 7 -->
<g id="node8" class="node">
<title>7</title>
<path fill="none" stroke="#569ad8" stroke-width="2" stroke-dasharray="5,2" d="M277,-108C277,-108 187,-108 187,-108 181,-108 175,-102 175,-96 175,-96 175,-84 175,-84 175,-78 181,-72 187,-72 187,-72 277,-72 277,-72 283,-72 289,-78 289,-84 289,-84 289,-96 289,-96 289,-102 283,-108 277,-108"/>
<text text-anchor="middle" x="232" y="-87.5" font-family="sans" font-size="10.00">view_with_datavzrd</text>
</g>
<!-- 1&#45;&gt;7 -->
<g id="edge11" class="edge">
<title>1&#45;&gt;7</title>
<path fill="none" stroke="grey" stroke-width="2" d="M132.29,-143.88C149.87,-134.55 171.81,-122.92 190.63,-112.94"/>
<polygon fill="grey" stroke="grey" stroke-width="2" points="192.39,-115.97 199.59,-108.19 189.11,-109.78 192.39,-115.97"/>
</g>
<!-- 2 -->
<g id="node3" class="node">
<title>2</title>
<path fill="none" stroke="#d85656" stroke-width="2" stroke-dasharray="5,2" d="M102,-324C102,-324 12,-324 12,-324 6,-324 0,-318 0,-312 0,-312 0,-300 0,-300 0,-294 6,-288 12,-288 12,-288 102,-288 102,-288 108,-288 114,-294 114,-300 114,-300 114,-312 114,-312 114,-318 108,-324 102,-324"/>
<text text-anchor="middle" x="57" y="-303.5" font-family="sans" font-size="10.00">Import_then_seqdef</text>
</g>
<!-- 2&#45;&gt;1 -->
<g id="edge4" class="edge">
<title>2&#45;&gt;1</title>
<path fill="none" stroke="grey" stroke-width="2" d="M58.57,-287.9C60.59,-269.7 64.84,-240.25 73,-216 76.06,-206.9 80.46,-197.41 84.83,-189.03"/>
<polygon fill="grey" stroke="grey" stroke-width="2" points="87.97,-190.56 89.66,-180.1 81.82,-187.23 87.97,-190.56"/>
</g>
<!-- 3 -->
<g id="node4" class="node">
<title>3</title>
<path fill="none" stroke="#d89556" stroke-width="2" stroke-dasharray="5,2" d="M198,-252C198,-252 94,-252 94,-252 88,-252 82,-246 82,-240 82,-240 82,-228 82,-228 82,-222 88,-216 94,-216 94,-216 198,-216 198,-216 204,-216 210,-222 210,-228 210,-228 210,-240 210,-240 210,-246 204,-252 198,-252"/>
<text text-anchor="middle" x="146" y="-231.5" font-family="sans" font-size="10.00">Optimal_dissimilarity5</text>
</g>
<!-- 2&#45;&gt;3 -->
<g id="edge6" class="edge">
<title>2&#45;&gt;3</title>
<path fill="none" stroke="grey" stroke-width="2" d="M79,-287.7C90.21,-278.88 104,-268.03 116.15,-258.47"/>
<polygon fill="grey" stroke="grey" stroke-width="2" points="118.56,-261.04 124.25,-252.1 114.23,-255.54 118.56,-261.04"/>
</g>
<!-- 3&#45;&gt;1 -->
<g id="edge5" class="edge">
<title>3&#45;&gt;1</title>
<path fill="none" stroke="grey" stroke-width="2" d="M134.63,-215.7C129.28,-207.56 122.8,-197.69 116.89,-188.7"/>
<polygon fill="grey" stroke="grey" stroke-width="2" points="119.66,-186.54 111.24,-180.1 113.81,-190.38 119.66,-186.54"/>
</g>
<!-- 4 -->
<g id="node5" class="node">
<title>4</title>
<path fill="none" stroke="#97d856" stroke-width="2" stroke-dasharray="5,2" d="M242,-396C242,-396 152,-396 152,-396 146,-396 140,-390 140,-384 140,-384 140,-372 140,-372 140,-366 146,-360 152,-360 152,-360 242,-360 242,-360 248,-360 254,-366 254,-372 254,-372 254,-384 254,-384 254,-390 248,-396 242,-396"/>
<text text-anchor="middle" x="197" y="-375.5" font-family="sans" font-size="10.00">dissimilarity_choice</text>
</g>
<!-- 4&#45;&gt;3 -->
<g id="edge7" class="edge">
<title>4&#45;&gt;3</title>
<path fill="none" stroke="grey" stroke-width="2" d="M183.55,-359.78C176.42,-349.83 168.1,-336.79 163,-324 155.1,-304.18 150.79,-280.39 148.5,-262.39"/>
<polygon fill="grey" stroke="grey" stroke-width="2" points="151.96,-261.81 147.34,-252.27 145,-262.61 151.96,-261.81"/>
</g>
<!-- 5 -->
<g id="node6" class="node">
<title>5</title>
<path fill="none" stroke="#56d89a" stroke-width="2" stroke-dasharray="5,2" d="M316,-324C316,-324 184,-324 184,-324 178,-324 172,-318 172,-312 172,-312 172,-300 172,-300 172,-294 178,-288 184,-288 184,-288 316,-288 316,-288 322,-288 328,-294 328,-300 328,-300 328,-312 328,-312 328,-318 322,-324 316,-324"/>
<text text-anchor="middle" x="250" y="-303.5" font-family="sans" font-size="10.00">params_dissimilarity_choice</text>
</g>
<!-- 4&#45;&gt;5 -->
<g id="edge9" class="edge">
<title>4&#45;&gt;5</title>
<path fill="none" stroke="grey" stroke-width="2" d="M210.1,-359.7C216.39,-351.39 224.05,-341.28 230.96,-332.14"/>
<polygon fill="grey" stroke="grey" stroke-width="2" points="233.8,-334.19 237.05,-324.1 228.22,-329.96 233.8,-334.19"/>
</g>
<!-- 5&#45;&gt;3 -->
<g id="edge8" class="edge">
<title>5&#45;&gt;3</title>
<path fill="none" stroke="grey" stroke-width="2" d="M224.56,-287.88C211.21,-278.89 194.68,-267.76 180.22,-258.03"/>
<polygon fill="grey" stroke="grey" stroke-width="2" points="181.79,-254.87 171.54,-252.19 177.88,-260.68 181.79,-254.87"/>
</g>
<!-- 6&#45;&gt;0 -->
<g id="edge2" class="edge">
<title>6&#45;&gt;0</title>
<path fill="none" stroke="grey" stroke-width="2" d="M100,-71.7C100,-63.98 100,-54.71 100,-46.11"/>
<polygon fill="grey" stroke="grey" stroke-width="2" points="103.5,-46.1 100,-36.1 96.5,-46.1 103.5,-46.1"/>
</g>
<!-- 7&#45;&gt;0 -->
<g id="edge3" class="edge">
<title>7&#45;&gt;0</title>
<path fill="none" stroke="grey" stroke-width="2" d="M199.71,-71.88C180.47,-61.67 156.01,-48.7 136.12,-38.16"/>
<polygon fill="grey" stroke="grey" stroke-width="2" points="137.54,-34.94 127.06,-33.35 134.26,-41.13 137.54,-34.94"/>
</g>
</g>
</svg>
